<svg width="322" height="51" viewBox="0 0 322 51" fill="none" xmlns="http://www.w3.org/2000/svg">
<g clip-path="url(#clip0_1_69)">
<rect x="13" y="-128" width="296" height="178" rx="18" fill="#0E1421"/>
<rect width="322" height="51" rx="25.5" fill="#0E1421"/>
<ellipse cx="25" cy="25.5" rx="18" ry="18.5" fill="#742BEC"/>
<path d="M68.9148 20.8182H70.1477V27.5597C70.1477 28.2557 69.9837 28.8771 69.6555 29.424C69.3307 29.9676 68.8717 30.3968 68.2784 30.7116C67.6851 31.0232 66.9891 31.179 66.1903 31.179C65.3916 31.179 64.6955 31.0232 64.1023 30.7116C63.509 30.3968 63.0483 29.9676 62.7202 29.424C62.3954 28.8771 62.233 28.2557 62.233 27.5597V20.8182H63.4659V27.4602C63.4659 27.9574 63.5753 28.3999 63.794 28.7876C64.0128 29.1721 64.3243 29.4754 64.7287 29.6974C65.1364 29.9162 65.6236 30.0256 66.1903 30.0256C66.7571 30.0256 67.2443 29.9162 67.652 29.6974C68.0597 29.4754 68.3712 29.1721 68.5866 28.7876C68.8054 28.3999 68.9148 27.9574 68.9148 27.4602V20.8182ZM77.8599 25.0739L76.8059 25.3722C76.7396 25.1965 76.6419 25.0258 76.5126 24.8601C76.3867 24.6911 76.2143 24.5518 75.9956 24.4425C75.7768 24.3331 75.4967 24.2784 75.1554 24.2784C74.688 24.2784 74.2986 24.3861 73.987 24.6016C73.6788 24.8137 73.5247 25.0838 73.5247 25.4119C73.5247 25.7036 73.6307 25.9339 73.8429 26.103C74.055 26.272 74.3864 26.4129 74.8372 26.5256L75.9707 26.804C76.6535 26.9697 77.1622 27.2232 77.497 27.5646C77.8317 27.9027 77.9991 28.3385 77.9991 28.8722C77.9991 29.3097 77.8732 29.7008 77.6213 30.0455C77.3727 30.3902 77.0247 30.6619 76.5772 30.8608C76.1298 31.0597 75.6094 31.1591 75.0162 31.1591C74.2373 31.1591 73.5926 30.9901 73.0822 30.652C72.5718 30.3139 72.2486 29.8201 72.1127 29.1705L73.2264 28.892C73.3324 29.303 73.533 29.6113 73.8279 29.8168C74.1262 30.0223 74.5157 30.125 74.9963 30.125C75.5431 30.125 75.9773 30.009 76.2988 29.777C76.6236 29.5417 76.786 29.2599 76.786 28.9318C76.786 28.6667 76.6932 28.4446 76.5076 28.2656C76.322 28.0833 76.037 27.9474 75.6525 27.858L74.3798 27.5597C73.6805 27.3939 73.1667 27.1371 72.8386 26.7891C72.5138 26.4377 72.3514 25.9986 72.3514 25.4716C72.3514 25.0407 72.4724 24.6596 72.7143 24.3281C72.9596 23.9967 73.2927 23.7365 73.7136 23.5476C74.1378 23.3587 74.6184 23.2642 75.1554 23.2642C75.911 23.2642 76.5043 23.4299 76.9352 23.7614C77.3694 24.0928 77.6776 24.5303 77.8599 25.0739ZM82.967 31.1591C82.2312 31.1591 81.5965 30.9967 81.0629 30.6719C80.5326 30.3438 80.1232 29.8864 79.8349 29.2997C79.5498 28.7098 79.4073 28.0237 79.4073 27.2415C79.4073 26.4593 79.5498 25.7699 79.8349 25.1733C80.1232 24.5734 80.5243 24.1061 81.038 23.7713C81.555 23.4332 82.1583 23.2642 82.8477 23.2642C83.2454 23.2642 83.6381 23.3305 84.0259 23.4631C84.4137 23.5956 84.7667 23.8111 85.0849 24.1094C85.4031 24.4044 85.6566 24.7955 85.8455 25.2827C86.0344 25.7699 86.1289 26.3698 86.1289 27.0824V27.5795H80.2425V26.5653H84.9357C84.9357 26.1345 84.8496 25.75 84.6772 25.4119C84.5082 25.0739 84.2662 24.8071 83.9513 24.6115C83.6398 24.416 83.2719 24.3182 82.8477 24.3182C82.3803 24.3182 81.976 24.4342 81.6346 24.6662C81.2965 24.8949 81.0363 25.1932 80.854 25.5611C80.6718 25.929 80.5806 26.3234 80.5806 26.7443V27.4205C80.5806 27.9972 80.68 28.486 80.8789 28.8871C81.0811 29.2848 81.3612 29.5881 81.7191 29.7969C82.0771 30.0024 82.493 30.1051 82.967 30.1051C83.2752 30.1051 83.5536 30.062 83.8022 29.9759C84.0541 29.8864 84.2712 29.7538 84.4535 29.5781C84.6358 29.3991 84.7766 29.1771 84.8761 28.9119L86.0096 29.2301C85.8903 29.6146 85.6897 29.9527 85.408 30.2443C85.1263 30.5327 84.7783 30.758 84.364 30.9205C83.9497 31.0795 83.484 31.1591 82.967 31.1591ZM87.9137 31V23.3636H89.0472V24.517H89.1268C89.266 24.1392 89.5179 23.8326 89.8825 23.5973C90.247 23.362 90.658 23.2443 91.1154 23.2443C91.2016 23.2443 91.3093 23.246 91.4386 23.2493C91.5678 23.2526 91.6656 23.2576 91.7319 23.2642V24.4574C91.6921 24.4474 91.601 24.4325 91.4585 24.4126C91.3192 24.3894 91.1718 24.3778 91.016 24.3778C90.6448 24.3778 90.3133 24.4557 90.0217 24.6115C89.7333 24.764 89.5046 24.9761 89.3356 25.2479C89.1699 25.5163 89.087 25.8229 89.087 26.1676V31H87.9137ZM105.293 20.8182V31H104.1L98.5517 23.0057H98.4522V31H97.2193V20.8182H98.4125L103.981 28.8324H104.08V20.8182H105.293ZM109.848 31.179C109.364 31.179 108.925 31.0878 108.531 30.9055C108.136 30.7199 107.823 30.4531 107.591 30.1051C107.359 29.7538 107.243 29.3295 107.243 28.8324C107.243 28.3949 107.329 28.0402 107.502 27.7685C107.674 27.4934 107.904 27.2779 108.193 27.1222C108.481 26.9664 108.799 26.8504 109.147 26.7741C109.499 26.6946 109.852 26.6316 110.206 26.5852C110.67 26.5256 111.047 26.4808 111.335 26.451C111.627 26.4179 111.839 26.3632 111.971 26.2869C112.107 26.2107 112.175 26.0781 112.175 25.8892V25.8494C112.175 25.3589 112.041 24.9777 111.772 24.706C111.507 24.4342 111.105 24.2983 110.564 24.2983C110.004 24.2983 109.565 24.4209 109.247 24.6662C108.929 24.9115 108.705 25.1733 108.576 25.4517L107.462 25.054C107.661 24.59 107.926 24.2287 108.257 23.9702C108.592 23.7083 108.957 23.526 109.351 23.4233C109.749 23.3172 110.14 23.2642 110.525 23.2642C110.77 23.2642 111.051 23.294 111.37 23.3537C111.691 23.41 112.001 23.5277 112.299 23.7067C112.601 23.8857 112.851 24.1558 113.05 24.517C113.249 24.8783 113.348 25.3622 113.348 25.9688V31H112.175V29.9659H112.115C112.036 30.1316 111.903 30.3089 111.718 30.4979C111.532 30.6868 111.285 30.8475 110.977 30.9801C110.669 31.1127 110.292 31.179 109.848 31.179ZM110.027 30.125C110.491 30.125 110.882 30.0339 111.201 29.8516C111.522 29.6693 111.764 29.4339 111.926 29.1456C112.092 28.8572 112.175 28.554 112.175 28.2358V27.1619C112.125 27.2216 112.016 27.2763 111.847 27.326C111.681 27.3724 111.489 27.4138 111.27 27.4503C111.055 27.4834 110.844 27.5133 110.639 27.5398C110.437 27.563 110.273 27.5829 110.147 27.5994C109.842 27.6392 109.557 27.7038 109.292 27.7933C109.03 27.8795 108.818 28.0104 108.655 28.1861C108.496 28.3584 108.417 28.5937 108.417 28.892C108.417 29.2997 108.567 29.608 108.869 29.8168C109.174 30.0223 109.56 30.125 110.027 30.125ZM115.49 31V23.3636H116.623V24.5568H116.723C116.882 24.1491 117.139 23.8326 117.493 23.6072C117.848 23.3786 118.274 23.2642 118.771 23.2642C119.275 23.2642 119.694 23.3786 120.029 23.6072C120.367 23.8326 120.631 24.1491 120.819 24.5568H120.899C121.095 24.1624 121.388 23.8492 121.779 23.6172C122.17 23.3819 122.639 23.2642 123.186 23.2642C123.869 23.2642 124.427 23.478 124.861 23.9055C125.296 24.3298 125.513 24.991 125.513 25.8892V31H124.339V25.8892C124.339 25.3258 124.185 24.9231 123.877 24.6811C123.569 24.4392 123.206 24.3182 122.788 24.3182C122.251 24.3182 121.835 24.4806 121.54 24.8054C121.245 25.1269 121.098 25.5346 121.098 26.0284V31H119.905V25.7699C119.905 25.3357 119.764 24.986 119.482 24.7209C119.2 24.4524 118.837 24.3182 118.393 24.3182C118.088 24.3182 117.803 24.3994 117.538 24.5618C117.276 24.7242 117.064 24.9496 116.902 25.2379C116.743 25.523 116.663 25.8527 116.663 26.2273V31H115.49ZM130.86 31.1591C130.124 31.1591 129.489 30.9967 128.955 30.6719C128.425 30.3438 128.016 29.8864 127.727 29.2997C127.442 28.7098 127.3 28.0237 127.3 27.2415C127.3 26.4593 127.442 25.7699 127.727 25.1733C128.016 24.5734 128.417 24.1061 128.931 23.7713C129.448 23.4332 130.051 23.2642 130.74 23.2642C131.138 23.2642 131.531 23.3305 131.919 23.4631C132.306 23.5956 132.659 23.8111 132.977 24.1094C133.296 24.4044 133.549 24.7955 133.738 25.2827C133.927 25.7699 134.021 26.3698 134.021 27.0824V27.5795H128.135V26.5653H132.828C132.828 26.1345 132.742 25.75 132.57 25.4119C132.401 25.0739 132.159 24.8071 131.844 24.6115C131.532 24.416 131.164 24.3182 130.74 24.3182C130.273 24.3182 129.869 24.4342 129.527 24.6662C129.189 24.8949 128.929 25.1932 128.747 25.5611C128.564 25.929 128.473 26.3234 128.473 26.7443V27.4205C128.473 27.9972 128.573 28.486 128.771 28.8871C128.974 29.2848 129.254 29.5881 129.612 29.7969C129.97 30.0024 130.386 30.1051 130.86 30.1051C131.168 30.1051 131.446 30.062 131.695 29.9759C131.947 29.8864 132.164 29.7538 132.346 29.5781C132.528 29.3991 132.669 29.1771 132.769 28.9119L133.902 29.2301C133.783 29.6146 133.582 29.9527 133.301 30.2443C133.019 30.5327 132.671 30.758 132.257 30.9205C131.842 31.0795 131.377 31.1591 130.86 31.1591Z" fill="white"/>
<path opacity="0.5" d="M35 31.875C35 34.9816 35 37.5 25 37.5C15 37.5 15 34.9816 15 31.875C15 28.7684 19.4771 26.25 25 26.25C30.5229 26.25 35 28.7684 35 31.875Z" fill="#1C274C"/>
<path d="M25 22.5C27.7614 22.5 30 20.2614 30 17.5C30 14.7386 27.7614 12.5 25 12.5C22.2386 12.5 20 14.7386 20 17.5C20 20.2614 22.2386 22.5 25 22.5Z" fill="#1C274C"/>
<path d="M287 23.5L292 28.5L297 23.5" stroke="white" stroke-linecap="round" stroke-linejoin="round"/>
</g>
<defs>
<clipPath id="clip0_1_69">
<rect width="322" height="51" fill="white"/>
</clipPath>
</defs>
</svg>
